<!-- AI Blog Platform Project Screenshot Placeholder -->
<svg width="1200" height="800" viewBox="0 0 1200 800" xmlns="http://www.w3.org/2000/svg">
  <rect width="1200" height="800" fill="#fafafa"/>
  
  <!-- Header -->
  <rect x="0" y="0" width="1200" height="80" fill="#1f2937"/>
  <text x="60" y="50" fill="white" font-family="Arial, sans-serif" font-size="24" font-weight="bold">AI Blog Platform</text>
  
  <!-- AI Assistant indicator -->
  <circle cx="1100" cy="40" r="15" fill="#10b981"/>
  <text x="1100" y="47" text-anchor="middle" fill="white" font-family="Arial, sans-serif" font-size="12">AI</text>
  
  <!-- Main content area -->
  <rect x="80" y="120" width="800" height="600" fill="white" stroke="#e5e7eb" rx="8"/>
  
  <!-- Article preview -->
  <rect x="120" y="160" width="720" height="120" fill="#f9fafb" rx="6"/>
  <rect x="140" y="180" width="500" height="20" fill="#d1d5db" rx="10"/>
  <rect x="140" y="210" width="680" height="15" fill="#e5e7eb" rx="7"/>
  <rect x="140" y="235" width="600" height="15" fill="#e5e7eb" rx="7"/>
  
  <!-- Writing interface -->
  <rect x="120" y="320" width="720" height="300" fill="white" stroke="#d1d5db" rx="6"/>
  <rect x="140" y="340" width="680" height="20" fill="#f3f4f6" rx="4"/>
  <rect x="140" y="380" width="680" height="15" fill="#f9fafb" rx="4"/>
  <rect x="140" y="405" width="650" height="15" fill="#f9fafb" rx="4"/>
  <rect x="140" y="430" width="600" height="15" fill="#f9fafb" rx="4"/>
  
  <!-- AI suggestions panel -->
  <rect x="920" y="120" width="240" height="600" fill="#f8fafc" stroke="#e2e8f0" rx="8"/>
  <text x="1040" y="160" text-anchor="middle" fill="#374151" font-family="Arial, sans-serif" font-size="16" font-weight="bold">AI Suggestions</text>
  
  <rect x="940" y="180" width="200" height="60" fill="white" stroke="#d1d5db" rx="4"/>
  <rect x="940" y="260" width="200" height="60" fill="white" stroke="#d1d5db" rx="4"/>
  <rect x="940" y="340" width="200" height="60" fill="white" stroke="#d1d5db" rx="4"/>
  
  <text x="600" y="760" text-anchor="middle" fill="#64748b" font-family="Arial, sans-serif" font-size="18">
    Next.js + OpenAI + MDX + Prisma
  </text>
</svg>
