<!-- Weather Dashboard Project Screenshot Placeholder -->
<svg width="1200" height="800" viewBox="0 0 1200 800" xmlns="http://www.w3.org/2000/svg">
  <defs>
    <linearGradient id="skyGrad" x1="0%" y1="0%" x2="0%" y2="100%">
      <stop offset="0%" style="stop-color:#0ea5e9"/>
      <stop offset="100%" style="stop-color:#0369a1"/>
    </linearGradient>
  </defs>
  <rect width="1200" height="800" fill="url(#skyGrad)"/>
  
  <!-- Header -->
  <text x="60" y="60" fill="white" font-family="Arial, sans-serif" font-size="28" font-weight="bold">Weather Analytics</text>
  
  <!-- Main weather card -->
  <rect x="80" y="120" width="400" height="280" fill="rgba(255,255,255,0.2)" rx="16" stroke="rgba(255,255,255,0.3)"/>
  <text x="280" y="180" text-anchor="middle" fill="white" font-family="Arial, sans-serif" font-size="48" font-weight="bold">22°C</text>
  <text x="280" y="220" text-anchor="middle" fill="#bae6fd" font-family="Arial, sans-serif" font-size="20">Partly Cloudy</text>
  <text x="280" y="250" text-anchor="middle" fill="#bae6fd" font-family="Arial, sans-serif" font-size="16">New York, NY</text>
  
  <!-- Charts area -->
  <rect x="520" y="120" width="600" height="280" fill="rgba(255,255,255,0.1)" rx="16" stroke="rgba(255,255,255,0.2)"/>
  <text x="820" y="160" text-anchor="middle" fill="white" font-family="Arial, sans-serif" font-size="18" font-weight="bold">7-Day Forecast</text>
  
  <!-- Chart lines -->
  <polyline points="540,350 640,320 740,340 840,310 940,330 1040,300" fill="none" stroke="white" stroke-width="3"/>
  <polyline points="540,370 640,360 740,380 840,350 940,370 1040,340" fill="none" stroke="#bae6fd" stroke-width="2"/>
  
  <!-- Bottom panels -->
  <rect x="80" y="450" width="280" height="280" fill="rgba(255,255,255,0.1)" rx="12"/>
  <rect x="400" y="450" width="280" height="280" fill="rgba(255,255,255,0.1)" rx="12"/>
  <rect x="720" y="450" width="400" height="280" fill="rgba(255,255,255,0.1)" rx="12"/>
  
  <text x="220" y="490" text-anchor="middle" fill="white" font-family="Arial, sans-serif" font-size="16" font-weight="bold">Wind Speed</text>
  <text x="540" y="490" text-anchor="middle" fill="white" font-family="Arial, sans-serif" font-size="16" font-weight="bold">Humidity</text>
  <text x="920" y="490" text-anchor="middle" fill="white" font-family="Arial, sans-serif" font-size="16" font-weight="bold">UV Index</text>
  
  <text x="600" y="780" text-anchor="middle" fill="#bae6fd" font-family="Arial, sans-serif" font-size="18">
    React + D3.js + OpenWeather API
  </text>
</svg>
